<?xml version="1.0" encoding="utf-8"?>
<!-- Generator: Adobe Illustrator 16.0.0, SVG Export Plug-In . SVG Version: 6.00 Build 0)  -->
<!DOCTYPE svg PUBLIC "-//W3C//DTD SVG 1.1//EN" "http://www.w3.org/Graphics/SVG/1.1/DTD/svg11.dtd">
<svg version="1.1" id="Layer_1" xmlns="http://www.w3.org/2000/svg" xmlns:xlink="http://www.w3.org/1999/xlink" x="0px" y="0px"
	 width="2208px" height="2208px" viewBox="0 0 2208 2208" enable-background="new 0 0 2208 2208" xml:space="preserve">
<rect fill="#E23E57" width="2208" height="2208"/>
<path fill="#FFFFFF" d="M1388.182,335.994l-21.213,1.034c-253.948,12.989-560.807,337.125-556.486,587.839
	c1.8,106.154,40.636,205.771,106.995,287.054l-341.536,341.525l-169.125-169.125c-18.75-18.691-48.976-18.691-67.709,0
	c-18.694,18.674-18.694,48.958,0,67.635l221.459,221.49l15.36,15.419l0,0l169.14,169.111c18.75,18.706,48.975,18.706,67.651,0
	c18.721-18.688,18.721-48.96,0-67.664l-169.142-169.126l341.539-341.505c81.39,66.219,180.853,105.132,287.174,106.98
	c250.816,4.303,574.878-302.553,587.689-556.535l1.107-21.211L1388.182,335.994z M1273.88,1290.973
	c-194.728-3.36-364.471-172.771-367.726-367.68c-3.33-193.894,244.743-461.884,445.204-488.793l411.138,411.138
	C1735.675,1046.159,1467.79,1294.351,1273.88,1290.973z M1370.439,864.598c161.461,103.724,340.591-2.821,340.591-2.821
	c-40.274,176.175-273.961,384.167-436.38,381.346c-160.998-2.713-317.897-159.599-320.643-320.596
	c-0.152-9.809,2.714-20.459,4.02-30.645c53.115-4.95,100.485-16.349,125.357-30.555
	C1143.172,827.218,1208.961,760.872,1370.439,864.598z"/>
</svg>
