<?xml version="1.0" encoding="utf-8"?>
<!-- Generator: Adobe Illustrator 16.0.0, SVG Export Plug-In . SVG Version: 6.00 Build 0)  -->
<!DOCTYPE svg PUBLIC "-//W3C//DTD SVG 1.1//EN" "http://www.w3.org/Graphics/SVG/1.1/DTD/svg11.dtd">
<svg version="1.1" id="Layer_1" xmlns="http://www.w3.org/2000/svg" xmlns:xlink="http://www.w3.org/1999/xlink" x="0px" y="0px"
	 width="2208px" height="2208px" viewBox="0 0 2208 2208" enable-background="new 0 0 2208 2208" xml:space="preserve">
<rect fill="#E23E57" width="2208" height="2208"/>
<path fill="#FFFFFF" d="M1289.816,591.996l-14.141,0.69c-169.299,8.659-373.871,224.75-370.991,391.892
	c1.2,70.77,27.09,137.181,71.33,191.369l-227.691,227.684l-112.75-112.75c-12.5-12.461-32.65-12.461-45.14,0
	c-12.462,12.449-12.462,32.639,0,45.09l147.64,147.66l10.24,10.279l0,0l112.76,112.74c12.5,12.471,32.65,12.471,45.101,0
	c12.48-12.459,12.48-32.639,0-45.109l-112.761-112.75l227.692-227.67c54.26,44.146,120.569,70.088,191.45,71.32
	c167.211,2.869,383.252-201.702,391.793-371.023l0.738-14.141L1289.816,591.996z M1213.615,1228.648
	c-129.818-2.24-242.98-115.18-245.15-245.12c-2.22-129.262,163.162-307.922,296.802-325.862l274.092,274.092
	C1521.479,1065.439,1342.889,1230.9,1213.615,1228.648z M1277.988,944.398c107.641,69.15,227.061-1.88,227.061-1.88
	c-26.85,117.45-182.641,256.111-290.92,254.23c-107.332-1.809-211.932-106.399-213.762-213.73c-0.101-6.54,1.81-13.64,2.68-20.43
	c35.41-3.3,66.99-10.9,83.571-20.37C1126.477,919.478,1170.336,875.248,1277.988,944.398z"/>
</svg>
