<?xml version="1.0" encoding="utf-8"?>
<!-- Generator: Adobe Illustrator 16.0.0, SVG Export Plug-In . SVG Version: 6.00 Build 0)  -->
<!DOCTYPE svg PUBLIC "-//W3C//DTD SVG 1.1//EN" "http://www.w3.org/Graphics/SVG/1.1/DTD/svg11.dtd">
<svg version="1.1" id="Layer_1" xmlns="http://www.w3.org/2000/svg" xmlns:xlink="http://www.w3.org/1999/xlink" x="0px" y="0px"
	 width="2208px" height="2208px" viewBox="0 0 2208 2208" enable-background="new 0 0 2208 2208" xml:space="preserve">
<rect fill="#E23E57" width="2208" height="2208"/>
<g>
	<path fill="#FFFFFF" d="M1201.78,1004.41l-2.751,0.134c-32.931,1.685-72.722,43.715-72.16,76.228
		c0.231,13.766,5.27,26.684,13.875,37.224l-44.288,44.285l-21.932-21.932c-2.432-2.424-6.352-2.424-8.78,0
		c-2.424,2.422-2.424,6.352,0,8.771l28.718,28.721l1.992,2l0,0l21.933,21.93c2.434,2.426,6.351,2.426,8.772,0
		c2.428-2.424,2.428-6.35,0-8.775l-21.934-21.93l44.287-44.284c10.557,8.588,23.452,13.634,37.239,13.873
		c32.524,0.556,74.546-39.233,76.208-72.168l0.144-2.75L1201.78,1004.41z M1186.958,1128.246
		c-25.254-0.436-47.265-22.404-47.685-47.679c-0.432-25.143,31.736-59.895,57.731-63.384l53.313,53.313
		C1246.841,1096.5,1212.103,1128.684,1186.958,1128.246z M1199.479,1072.956c20.938,13.45,44.166-0.365,44.166-0.365
		c-5.223,22.845-35.525,49.816-56.587,49.448c-20.877-0.352-41.223-20.696-41.579-41.571c-0.02-1.273,0.353-2.653,0.521-3.974
		c6.889-0.642,13.031-2.12,16.256-3.962C1170.009,1068.109,1178.54,1059.506,1199.479,1072.956z"/>
	<text transform="matrix(1 0 0 1 728.5215 1141.0312)" fill="#FFFFFF" font-family="'Lora-Regular'" font-size="128">Wine</text>
	<text transform="matrix(1 0 0 1 1293.541 1141.0312)" fill="#FFFFFF" font-family="'Lora-Regular'" font-size="128">Me</text>
</g>
</svg>
