<?xml version="1.0" encoding="UTF-8"?>
<svg width="2208px" height="2208px" viewBox="0 0 2208 2208" version="1.1" xmlns="http://www.w3.org/2000/svg" xmlns:xlink="http://www.w3.org/1999/xlink">
    <!-- Generator: Sketch 49.3 (51167) - http://www.bohemiancoding.com/sketch -->
    <title>splash</title>
    <desc>Created with Sketch.</desc>
    <defs></defs>
    <g id="Page-1" stroke="none" stroke-width="1" fill="none" fill-rule="evenodd">
        <g id="splash">
            <rect id="Rectangle-path" fill="#48466D" fill-rule="nonzero" x="0" y="0" width="2208" height="2208"></rect>
            <g id="Group" transform="translate(728.000000, 1004.000000)" fill="#FFFFFF">
                <path d="M473.78,0.41 L471.029,0.544 C438.098,2.229 398.307,44.259 398.869,76.772 C399.1,90.538 404.139,103.456 412.744,113.996 L368.456,158.281 L346.524,136.349 C344.092,133.925 340.172,133.925 337.744,136.349 C335.32,138.771 335.32,142.701 337.744,145.12 L366.462,173.841 L368.454,175.841 L390.387,197.771 C392.821,200.197 396.738,200.197 399.159,197.771 C401.587,195.347 401.587,191.421 399.159,188.996 L377.225,167.066 L421.512,122.782 C432.069,131.37 444.964,136.416 458.751,136.655 C491.275,137.211 533.297,97.422 534.959,64.487 L535.103,61.737 L473.78,0.41 Z M458.958,124.246 C433.704,123.81 411.693,101.842 411.273,76.567 C410.841,51.424 443.009,16.672 469.004,13.183 L522.317,66.496 C518.841,92.5 484.103,124.684 458.958,124.246 Z M471.479,68.956 C492.417,82.406 515.645,68.591 515.645,68.591 C510.422,91.436 480.12,118.407 459.058,118.039 C438.181,117.687 417.835,97.343 417.479,76.468 C417.459,75.195 417.832,73.815 418,72.494 C424.889,71.852 431.031,70.374 434.256,68.532 C442.009,64.109 450.54,55.506 471.479,68.956 Z" id="Shape" fill-rule="nonzero"></path>
                <text id="Wine" font-family="Helvetica" font-size="128" font-weight="normal">
                    <tspan x="0.5215" y="137.0312">Wine</tspan>
                </text>
                <text id="Me" font-family="Helvetica" font-size="128" font-weight="normal">
                    <tspan x="565.541" y="137.0312">Me</tspan>
                </text>
            </g>
        </g>
    </g>
</svg>