<?xml version="1.0" encoding="utf-8"?>
<!-- Generator: Adobe Illustrator 16.0.0, SVG Export Plug-In . SVG Version: 6.00 Build 0)  -->
<!DOCTYPE svg PUBLIC "-//W3C//DTD SVG 1.1//EN" "http://www.w3.org/Graphics/SVG/1.1/DTD/svg11.dtd">
<svg version="1.1" id="Layer_1" xmlns="http://www.w3.org/2000/svg" xmlns:xlink="http://www.w3.org/1999/xlink" x="0px" y="0px"
	 width="2208px" height="2208px" viewBox="0 0 2208 2208" enable-background="new 0 0 2208 2208" xml:space="preserve">
<rect fill="#E23E57" width="2208" height="2208"/>
<g>
	<path fill="#FFFFFF" d="M1112.3,1054l-1.381,0.067c-16.533,0.846-36.511,21.949-36.23,38.271
		c0.118,6.911,2.646,13.396,6.966,18.688l-22.235,22.235l-11.011-11.011c-1.221-1.217-3.188-1.217-4.408,0
		c-1.217,1.216-1.217,3.188,0,4.403l14.418,14.42l1,1.004l0,0l11.012,11.01c1.22,1.218,3.188,1.218,4.404,0
		c1.219-1.217,1.219-3.188,0-4.405l-11.012-11.011l22.236-22.234c5.298,4.312,11.774,6.845,18.696,6.965
		c16.329,0.281,37.427-19.697,38.26-36.232l0.073-1.381L1112.3,1054z M1104.858,1116.173c-12.677-0.219-23.728-11.248-23.94-23.938
		c-0.217-12.623,15.933-30.07,28.984-31.822l26.767,26.767C1134.923,1100.234,1117.482,1116.393,1104.858,1116.173z
		 M1111.144,1088.414c10.512,6.753,22.174-0.183,22.174-0.183c-2.622,11.469-17.836,25.01-28.41,24.827
		c-10.481-0.177-20.696-10.391-20.875-20.872c-0.009-0.639,0.177-1.333,0.262-1.996c3.458-0.322,6.542-1.064,8.161-1.989
		C1096.349,1085.98,1100.632,1081.661,1111.144,1088.414z"/>
	<text transform="matrix(1 0 0 1 868.3794 1121.3203)" fill="#FFFFFF" font-family="'Lora-Regular'" font-size="64">Wine</text>
	<text transform="matrix(1 0 0 1 1161.3984 1121.3203)" fill="#FFFFFF" font-family="'Lora-Regular'" font-size="64">Me</text>
</g>
</svg>
