<?xml version="1.0" encoding="utf-8"?>
<!-- Generator: Adobe Illustrator 16.0.0, SVG Export Plug-In . SVG Version: 6.00 Build 0)  -->
<!DOCTYPE svg PUBLIC "-//W3C//DTD SVG 1.1//EN" "http://www.w3.org/Graphics/SVG/1.1/DTD/svg11.dtd">
<svg version="1.1" id="Layer_1" xmlns="http://www.w3.org/2000/svg" xmlns:xlink="http://www.w3.org/1999/xlink" x="0px" y="0px"
	 width="2208px" height="2208px" viewBox="0 0 2208 2208" enable-background="new 0 0 2208 2208" xml:space="preserve">
<rect fill="#E23E57" width="2208" height="2208"/>
<g>
	<path fill="#FFFFFF" d="M1154.927,1054l-1.381,0.067c-16.533,0.846-36.511,21.948-36.229,38.271
		c0.117,6.911,2.646,13.396,6.966,18.688l-22.235,22.234l-11.011-11.011c-1.221-1.217-3.188-1.217-4.408,0
		c-1.217,1.216-1.217,3.188,0,4.403l14.418,14.42l1,1.004l0,0l11.012,11.01c1.221,1.218,3.188,1.218,4.404,0
		c1.219-1.217,1.219-3.188,0-4.405l-11.012-11.011l22.235-22.233c5.299,4.312,11.774,6.845,18.696,6.965
		c16.329,0.28,37.427-19.697,38.261-36.232l0.072-1.381L1154.927,1054z M1147.485,1116.173
		c-12.678-0.219-23.729-11.248-23.94-23.938c-0.217-12.623,15.934-30.07,28.984-31.822l26.767,26.767
		C1177.55,1100.234,1160.109,1116.393,1147.485,1116.173z M1153.771,1088.414c10.512,6.753,22.174-0.184,22.174-0.184
		c-2.622,11.47-17.836,25.011-28.41,24.827c-10.481-0.177-20.696-10.391-20.875-20.872c-0.01-0.639,0.177-1.332,0.262-1.995
		c3.458-0.322,6.542-1.064,8.161-1.989C1138.976,1085.98,1143.259,1081.661,1153.771,1088.414z"/>
	<text transform="matrix(1 0 0 1 911.0059 1121.3203)" fill="#FFFFFF" font-family="'Lora-Regular'" font-size="64">Wine</text>
	<text transform="matrix(1 0 0 1 1204.0254 1121.3203)" fill="#FFFFFF" font-family="'Lora-Regular'" font-size="64">Me</text>
</g>
</svg>
